<svg id="圖層_1" data-name="圖層 1" xmlns="http://www.w3.org/2000/svg" xmlns:xlink="http://www.w3.org/1999/xlink" viewBox="0 0 405.49 202.44"><defs><style>.cls-1,.cls-2{fill:#62b39d;stroke-miterlimit:10;stroke-width:0.1px;}.cls-1{stroke:#62b39d;}.cls-2{stroke:#fff;}.cls-3{fill:url(#未命名漸層_267);}.cls-4{fill:url(#未命名漸層_3);}.cls-5{fill:url(#未命名漸層_267-2);}.cls-6{fill:url(#未命名漸層_267-3);}.cls-7{fill:url(#未命名漸層_5);}</style><linearGradient id="未命名漸層_267" x1="34.91" y1="85.71" x2="453.53" y2="87.38" gradientUnits="userSpaceOnUse"><stop offset="0" stop-color="#f5a85d"/><stop offset="1" stop-color="#6ac2b3"/></linearGradient><linearGradient id="未命名漸層_3" x1="34.68" y1="143.61" x2="453.3" y2="145.28" gradientUnits="userSpaceOnUse"><stop offset="0.12" stop-color="#f5a85d"/><stop offset="1" stop-color="#6ac2b3"/></linearGradient><linearGradient id="未命名漸層_267-2" x1="34.8" y1="114.23" x2="453.42" y2="115.9" xlink:href="#未命名漸層_267"/><linearGradient id="未命名漸層_267-3" x1="34.82" y1="109.47" x2="453.44" y2="111.14" xlink:href="#未命名漸層_267"/><linearGradient id="未命名漸層_5" x1="34.99" y1="89.99" x2="441.38" y2="91.61" xlink:href="#未命名漸層_267"/></defs><path class="cls-1" d="M38.61,176.09h.87L44,184.34l1.25,2.3h0c0-1.12-.1-2.25-.1-3.39v-7.16H46v11.66H45.1l-4.54-8.25-1.25-2.3h0c0,1.13.1,2.19.1,3.32v7.23h-.77Z" transform="translate(-38.23 -33.46)"/><path class="cls-1" d="M66.66,183.51A4.26,4.26,0,0,1,70.92,179a3.59,3.59,0,0,1,3.8,3.93,3.66,3.66,0,0,1,0,.66H67.05V183h7.29l-.33.31c0-2.41-1.26-3.56-3.08-3.56a3.53,3.53,0,0,0-3.46,3.78,3.57,3.57,0,0,0,3.72,3.8,4.8,4.8,0,0,0,2.85-.92l.33.6a5.55,5.55,0,0,1-3.23,1A4.29,4.29,0,0,1,66.66,183.51Z" transform="translate(-38.23 -33.46)"/><path class="cls-1" d="M98.44,183.34l-3.13-4.09h.91l1.63,2.16c.34.47.69,1,1.07,1.43H99c.37-.46.77-1,1.11-1.46l1.58-2.13h.87l-3.16,4.13,3.43,4.37h-.91l-1.79-2.3c-.39-.48-.8-1.08-1.22-1.57h-.06c-.41.52-.79,1-1.2,1.59l-1.75,2.28H95Z" transform="translate(-38.23 -33.46)"/><path class="cls-1" d="M126.85,176.79h-4.06v-.7h8.94v.7h-4.06v11h-.82Z" transform="translate(-38.23 -33.46)"/><path class="cls-1" d="M151.62,183.51a4.27,4.27,0,0,1,4.27-4.47,3.59,3.59,0,0,1,3.8,3.93,3.67,3.67,0,0,1-.05.66H152V183h7.29l-.34.31c0-2.41-1.25-3.56-3.07-3.56a3.53,3.53,0,0,0-3.47,3.78,3.58,3.58,0,0,0,3.73,3.8,4.8,4.8,0,0,0,2.85-.92l.33.6a5.57,5.57,0,0,1-3.23,1A4.3,4.3,0,0,1,151.62,183.51Z" transform="translate(-38.23 -33.46)"/><path class="cls-1" d="M180.13,183.52a4.34,4.34,0,0,1,4.63-4.48,4.22,4.22,0,0,1,3.06,1.29l-.46.54a3.67,3.67,0,0,0-2.58-1.14,3.63,3.63,0,0,0-3.83,3.79,3.58,3.58,0,0,0,3.81,3.75,4.15,4.15,0,0,0,2.87-1.22l.41.55a4.77,4.77,0,0,1-3.3,1.37A4.27,4.27,0,0,1,180.13,183.52Z" transform="translate(-38.23 -33.46)"/><path class="cls-1" d="M208.77,175h.79v3.69l-.05,2.23h0A4.64,4.64,0,0,1,213,179c2.06,0,3.05,1.11,3.05,3.42v5.29h-.79v-5.19c0-1.9-.7-2.81-2.39-2.81-1.2,0-2,.63-3.26,1.91v6.09h-.79Z" transform="translate(-38.23 -33.46)"/><path class="cls-1" d="M268.45,176.09h.83l4.1,11.66h-.87l-2.32-6.86c-.47-1.39-.89-2.61-1.3-4h-.07c-.41,1.42-.82,2.64-1.29,4l-2.36,6.86h-.83Zm-2.23,7h5.23v.68h-5.23Z" transform="translate(-38.23 -33.46)"/><path class="cls-1" d="M293.42,183.52a4.34,4.34,0,0,1,4.63-4.48,4.22,4.22,0,0,1,3.06,1.29l-.46.54a3.68,3.68,0,0,0-2.59-1.14,3.63,3.63,0,0,0-3.82,3.79,3.58,3.58,0,0,0,3.81,3.75,4.15,4.15,0,0,0,2.87-1.22l.41.55A4.77,4.77,0,0,1,298,188,4.27,4.27,0,0,1,293.42,183.52Z" transform="translate(-38.23 -33.46)"/><path class="cls-1" d="M321.82,185.64c0-1.91,1.91-2.81,6.52-3.21,0-1.4-.58-2.7-2.53-2.7a6,6,0,0,0-3.22,1.15l-.36-.58A7,7,0,0,1,325.9,179a3,3,0,0,1,3.23,3.28v5.43h-.67l-.09-1.27h0a6.13,6.13,0,0,1-3.55,1.49C323.26,188,321.82,187.23,321.82,185.64Zm6.52.11V183c-4.33.39-5.71,1.2-5.71,2.57,0,1.22,1.14,1.68,2.29,1.68A5.47,5.47,0,0,0,328.34,185.75Z" transform="translate(-38.23 -33.46)"/><path class="cls-1" d="M349.71,183.52c0-2.75,1.88-4.48,4-4.48a4.13,4.13,0,0,1,2.79,1.2h0l0-1.72V175h.79v12.73h-.67l-.08-1.26h0a4.41,4.41,0,0,1-3,1.48C351.22,188,349.71,186.39,349.71,183.52Zm6.78,2.19V181a3.87,3.87,0,0,0-2.73-1.25c-1.8,0-3.23,1.64-3.23,3.78s1.14,3.75,3,3.75A4.17,4.17,0,0,0,356.49,185.71Z" transform="translate(-38.23 -33.46)"/><path class="cls-1" d="M378.2,183.51a4.26,4.26,0,0,1,4.26-4.47,3.59,3.59,0,0,1,3.8,3.93,4.87,4.87,0,0,1,0,.66h-7.63V183h7.29l-.33.31c0-2.41-1.26-3.56-3.08-3.56a3.53,3.53,0,0,0-3.46,3.78,3.57,3.57,0,0,0,3.72,3.8,4.8,4.8,0,0,0,2.85-.92l.33.6a5.55,5.55,0,0,1-3.23,1A4.29,4.29,0,0,1,378.2,183.51Z" transform="translate(-38.23 -33.46)"/><path class="cls-1" d="M406.47,179.25h.65l.09,1.16h0a2.22,2.22,0,0,1,2-1.37c.93,0,1.46.5,1.69,1.51.62-1,1.13-1.51,2.09-1.51,1.18,0,1.85.85,1.85,2.55v6.16h-.78v-6.08c0-1.27-.4-1.93-1.22-1.93s-1.25.53-1.81,1.6v6.41h-.75v-6.08c0-1.27-.39-1.93-1.21-1.93s-1.26.53-1.82,1.6v6.41h-.78Z" transform="translate(-38.23 -33.46)"/><path class="cls-1" d="M434.67,191.45l.21-.68a2.89,2.89,0,0,0,.83.13c1.32,0,2.15-1,2.67-2.25l.3-.74-4.14-8.66h.82l2.48,5.34c.33.72.76,1.64,1.16,2.41h.07c.34-.77.71-1.68,1-2.41l2.21-5.34h.77l-4,9.57a3.7,3.7,0,0,1-3.36,2.8A3.11,3.11,0,0,1,434.67,191.45Z" transform="translate(-38.23 -33.46)"/><path class="cls-2" d="M156.19,226.91h-3.95V225.6H147.8V227h-3.93v-10.2h-4.51V230h20.57v3.8H139.36v2.06h-4.05V216.75h-4.67V213h4.67V206h4.05V213h4.51v-7.63h3.93V213h4.44v-7.31h3.95V213h4.86v3.8h-4.86Zm-8.39-5h4.44v-5.18H147.8Z" transform="translate(-38.23 -33.46)"/><path class="cls-2" d="M233,205.38l3.77,1.23a52.68,52.68,0,0,1-3.09,6v23.17H229.6V218.51a32.51,32.51,0,0,1-3.41,3.71,17.21,17.21,0,0,0-2-3.71,3.39,3.39,0,0,0-.2-.28,31.81,31.81,0,0,0,7.5-9.6A30.4,30.4,0,0,0,233,205.38Zm22.34,11.82-9.56,1.31q1.49,11.56,5,12.49l.29.07c.41,0,.73-.44,1-1.45a33.72,33.72,0,0,0,.45-3.8A11.29,11.29,0,0,0,255.7,228q-1,7.78-4.28,7.79h-.16q-5.31-.48-7.69-8.27a48.74,48.74,0,0,1-1.67-8.5l-6.47.87-.58-3.76,6.66-.91q-.39-5.12-.51-9.65h4c.06,3.5.2,6.54.42,9.14l9.39-1.22Zm-.48-6.54-3.19,2a25.76,25.76,0,0,0-4.34-5.37l-.16-.17,2.92-1.8A28.52,28.52,0,0,1,254.87,210.66Z" transform="translate(-38.23 -33.46)"/><path class="cls-2" d="M345.73,216.84h2.51v6.76h-3.89v-3.93H323.17v3.93h-3.7v-6.76H322l-.61-10.33,2.16.42a43.87,43.87,0,0,0,4.47-1.74l1.8,2.13a25.89,25.89,0,0,1-4.63,1.64l0,.74h4.35v2.44h-4.22l.06,1.13h4.25v1.61c.56-.28,1.32-.71,2.29-1.29l-1.81-1.06,1.84-1.48a21.35,21.35,0,0,1,1.9,1.06,8.54,8.54,0,0,0,1.22-1.35l2.54.74a10.46,10.46,0,0,1-1.67,1.93,16,16,0,0,1,1.77,1.42l-2,1.64a12.6,12.6,0,0,0-1.67-1.45,20.63,20.63,0,0,1-2.77,1.77,12.86,12.86,0,0,0-1.64-1.42v.29h-4.12l.07,1.16H342l.1-1.16H338.2v-2.41h4.15l.07-1.13H338.3V209.7h4.28l.06-1.13h-4.47v-2.48h8.3Q346.18,212.69,345.73,216.84Zm-5.6,4.06,2.16,2a47.91,47.91,0,0,1-5.7,3.8h11.56v3.09H335.69v2.38c0,1.4-.31,2.32-.93,2.77a4.24,4.24,0,0,1-.77.38,17,17,0,0,1-5.22.52h-.42a12.63,12.63,0,0,0-1.25-3.28c1.07,0,2.43.06,4.09.06.45-.06.68-.26.7-.58v-2.25H319.47v-3.09h12.42v-1.51h2a17.11,17.11,0,0,0,2.06-1.35H325.3v-2.74h14Zm-2.73-11.81-1.9,1.67c-.37-.34-.89-.79-1.58-1.35a27.74,27.74,0,0,1-2.64,1.64,15.34,15.34,0,0,0-2.06-1.77A15.8,15.8,0,0,0,331.8,208L330,207l1.83-1.51a21.35,21.35,0,0,1,1.9,1.06,12.93,12.93,0,0,0,1.16-1.25l2.54.74a12.55,12.55,0,0,1-1.67,1.83C336.6,208.43,337.14,208.85,337.4,209.09Z" transform="translate(-38.23 -33.46)"/><path class="cls-2" d="M425.61,215.78l.68-.16,2.41,1q-2.25,12.13-10.07,17.67a19.5,19.5,0,0,1-2.61,1.58,10.09,10.09,0,0,0-2.22-2.64c-.19-.15-.36-.28-.48-.39a18.59,18.59,0,0,0,7.2-5.66,38.2,38.2,0,0,0-3.92-3c-.56.62-1.06,1.15-1.51,1.58a15.55,15.55,0,0,0-2.74-2.42,1.77,1.77,0,0,0-.29-.19,21.13,21.13,0,0,0,5.95-8.56c.24-.58.46-1.16.65-1.74l1.64.45v-2.22h-6.86v-3.57h6.86V205h3.89v2.54h7.63V205h3.93v2.54h6.92v3.57h-6.92v2.7h-3.93v-2.7h-7.63v2.7H422.3l.12,0c-.19.51-.45,1.17-.77,2Zm-1.32,3.35H420q-.39.74-1.35,2.25a44.4,44.4,0,0,1,3.83,2.57A24,24,0,0,0,424.29,219.13Zm10.43,12.45h4a1.09,1.09,0,0,0,1.16-.74,12.52,12.52,0,0,0,.32-2.57,9.87,9.87,0,0,0,3.5,1.48c-.27,2.47-.88,4.05-1.8,4.76a4.62,4.62,0,0,1-2.83.74h-4.89q-3.06,0-4-1.29a7,7,0,0,1-.81-3.89v-14.9h12.2V224c0,1.48-.31,2.46-.93,2.93a3.25,3.25,0,0,1-.49.25,10,10,0,0,1-4.18.58h-.42a11.51,11.51,0,0,0-1.09-3.41c.79,0,1.72,0,2.8,0q.48-.06.51-.45v-5.27h-4.54V230q0,1.19.42,1.41A3.31,3.31,0,0,0,434.72,231.58Z" transform="translate(-38.23 -33.46)"/><polygon class="cls-2" points="25.08 171.7 21.98 171.7 21.98 195.68 5.72 171.7 5.72 171.7 5.71 171.7 5.68 171.7 3.06 171.7 0.98 171.7 0.98 202.37 2.16 202.37 5.26 202.37 5.26 178.38 21.52 202.37 21.52 202.36 21.52 202.37 21.56 202.37 24.18 202.37 26.25 202.37 26.25 171.7 25.08 171.7"/><path class="cls-3" d="M375,114.68h61.6a6.23,6.23,0,0,0,6.23-6.23V65.93a6.23,6.23,0,0,0-6.23-6.23H434a6.18,6.18,0,0,0-3.64,1.18l-59,42.52A6.23,6.23,0,0,0,375,114.68Z" transform="translate(-38.23 -33.46)"/><path class="cls-4" d="M309.73,161.67H436.56a6.22,6.22,0,0,0,6.23-6.22v-21a6.23,6.23,0,0,0-6.23-6.23H338.83a6.2,6.2,0,0,0-3.64,1.18l-29.1,21A6.23,6.23,0,0,0,309.73,161.67Z" transform="translate(-38.23 -33.46)"/><path class="cls-5" d="M172,155.42l.34-81.68a6.28,6.28,0,0,0-10.11-5L56,150.41a6.28,6.28,0,0,0,3.83,11.26H165.71A6.27,6.27,0,0,0,172,155.42Z" transform="translate(-38.23 -33.46)"/><path class="cls-6" d="M394.05,70.8a6.28,6.28,0,0,0-3.66-11.39H348.48a10,10,0,0,0-5.76,1.81h0l-127.79,89a6.28,6.28,0,0,0,3.59,11.43h46.67a6.32,6.32,0,0,0,3.66-1.17Z" transform="translate(-38.23 -33.46)"/><path class="cls-7" d="M38.23,39.74v94.71a6.28,6.28,0,0,0,10.11,5L169.4,46.32l0,0a10.2,10.2,0,0,1,16.35,8h0v.2l-.36,87.89a6.28,6.28,0,0,0,9.87,5.18L335.07,50.24A23.39,23.39,0,0,1,348.48,46h88a6.29,6.29,0,0,0,6.28-6.29h0a6.28,6.28,0,0,0-6.28-6.28h-392A6.28,6.28,0,0,0,38.23,39.74Z" transform="translate(-38.23 -33.46)"/></svg>